# Alias OBJ Model File
# Exported from SketchUp, (c) 2000-2012 Trimble Navigation Limited
# File units = inches

mtllib Stair+05.mtl

g Mesh1 Group2 Group1 Model

usemtl Laminate_D02_120cm
v 39 12 -28.0625
vt 2.80379 0.607395
vn 0 -1 -0
v 40 12 -28.0625
vt 2.90379 0.607395
v 40 12 -26.0625
vt 2.90379 0.807395
v 39 12 -26.0625
vt 2.80379 0.807395
f 1/1/1 2/2/1 3/3/1 4/4/1 

vt 3.10379 0.807395
vn -1.31528e-15 6.77049e-19 -1
vt 3.20379 0.807395
v 39 40.7871 -28.0625
vt 3.20379 3.68611
v -54.3125 40.7871 -28.0625
vt 12.535 3.68611
v -55.375 40.7871 -28.0625
vt 12.6413 3.68611
v -55.375 42 -28.0625
vt 12.6413 3.80739
v 40 42 -28.0625
vt 3.10379 3.80739
f 2/5/2 1/6/2 5/7/2 6/8/2 7/9/2 8/10/2 9/11/2 

vn -1 2.46827e-16 -0
v 39 40.7871 -26.0625
vt 2.80379 3.68611
vt 2.60379 3.68611
vt 2.60379 0.807395
f 4/4/3 10/12/3 5/13/3 1/14/3 

v 40 40.7871 -26.0625
vt 2.90379 3.68611
vn -4.06808e-33 -3.08533e-17 1
f 11/15/4 10/12/4 4/4/4 3/3/4 

v 40 42 -26.0625
vt 2.90379 3.80739
vn 1.31308e-15 1.69157e-17 1
v -55.375 42 -26.0625
vt -6.63371 3.80739
v -55.375 40.7871 -26.0625
vt -6.63371 3.68611
v -54.3125 40.7871 -26.0625
vt -6.52746 3.68611
f 12/16/5 13/17/5 14/18/5 15/19/5 10/12/5 11/15/5 

vt 2.90379 4.00739
vn 0 1 -0
vt -6.63371 4.00739
f 9/20/6 8/21/6 13/17/6 12/16/6 

vt -6.83371 3.80739
vn -1 -2.92914e-15 1.77636e-15
vt -6.83371 3.68611
f 8/22/7 7/23/7 14/18/7 13/17/7 

v -55.375 12 -26.0625
vt 7.34754 -0.465067
vt 7.34754 2.41364
vt 7.14754 2.41364
v -55.375 12 -28.0625
vt 7.14754 -0.465067
f 16/24/3 14/25/3 7/26/3 17/27/3 

vn 0 0 1
vt -6.63371 0.807395
v -54.3125 12 -26.0625
vt -6.52746 0.807395
f 14/18/8 16/28/8 18/29/8 15/19/8 

vt 7.14754 -0.665067
vn -2.46827e-16 -1 -0
v -54.3125 12 -28.0625
vt 7.04129 -0.465067
vt 7.04129 -0.665067
f 16/30/9 17/27/9 19/31/9 18/32/9 

vn 0 0 -1
vt 7.04129 2.41364
f 17/27/10 7/26/10 6/33/10 19/31/10 

vt -6.63371 3.48611
vt -6.52746 3.48611
f 14/18/1 7/34/1 6/35/1 15/19/1 

vt 2.80379 3.48611
vn 2.27125e-15 -1 -1.07055e-30
f 5/36/11 10/12/11 15/19/11 6/35/11 

vt 6.84129 2.41364
vn 1 -2.46827e-16 -0
vt 6.84129 -0.465067
f 15/37/12 18/38/12 19/31/12 6/33/12 

vn 1 0 -0
f 12/16/13 11/15/13 3/3/13 2/5/13 9/11/13 

