# Alias OBJ Model File
# Exported from SketchUp, (c) 2000-2012 Trimble Navigation Limited
# File units = inches

mtllib Table.mtl

g Mesh1 Group1 ___14_1 Model

usemtl _21
v 60.0342 27.5591 -8.27137
vt 0 27.5591
vn -1 0 -0
v 60.0342 27.5591 -9.05877
vt -0.787402 27.5591
v 60.0342 0.787402 -9.05877
vt -0.787402 0.787402
v 60.0342 0 -9.05877
vt -0.787402 0
v 60.0342 0 -8.27137
vt 0 0
f 1/1/1 2/2/1 3/3/1 4/4/1 5/5/1 

vt -58.2677 0
vn 0 -1 -0
v 2.55391 27.5591 -8.27137
v 2.55391 27.5591 -9.03996
vt -0.787402 0.768596
v 2.55391 27.5591 -37.0303
vt -0.787402 28.759
v 2.55391 27.5591 -37.7989
vt -0.787402 29.5276
v 60.0342 27.5591 -37.7989
vt -58.2677 29.5276
v 60.0342 27.5591 -37.0115
vt -58.2677 28.7402
vt -58.2677 0.787402
f 1/6/2 6/4/2 7/7/2 8/8/2 9/9/2 10/10/2 11/11/2 2/12/2 

v 1.76651 0 -8.27137
vn 0 0 1
v 2.55391 0 -8.27137
vt 0.787402 0
vt 0.787402 27.5591
vt 58.2677 27.5591
vt 58.2677 0
v 60.8216 0 -8.27137
vt 59.0551 0
v 60.8216 28.3465 -8.27137
vt 59.0551 28.3465
v 1.76651 28.3465 -8.27137
vt 0 28.3465
f 12/5/3 13/13/3 6/14/3 1/15/3 5/16/3 14/17/3 15/18/3 16/19/3 

v 1.76651 0 -37.7989
vt 0 29.5276
v 2.55391 0 -37.7989
v 2.55391 0 -37.0303
v 2.55391 0 -9.03996
f 17/20/2 18/9/2 19/8/2 20/7/2 13/4/2 12/5/2 

v 60.8216 0 -37.7989
vt -59.0551 4.93703e-13
vn -1.27278e-43 -1.67201e-14 -1
v 60.0342 0 -37.7989
vt -58.2677 4.93703e-13
vt -58.2677 27.5591
vt -0.787402 4.93703e-13
vt -3.7582e-42 4.93703e-13
v 1.76651 28.3465 -37.7989
vt -3.7582e-42 28.3465
v 60.8216 28.3465 -37.7989
vt -59.0551 28.3465
f 21/21/4 22/22/4 10/23/4 9/2/4 18/24/4 17/25/4 23/26/4 24/27/4 

vt -59.0551 0
v 60.0342 0 -37.0115
vt -59.0551 29.5276
f 14/28/2 5/6/2 4/12/2 25/11/2 22/10/2 21/29/2 

v 60.0342 0.787402 -37.0115
vt -28.7402 0.787402
vt -28.7402 0
f 3/3/1 26/30/1 25/31/1 4/4/1 

v 60.8216 0.787402 -9.05877
vt 59.0551 0.787402
vn 0 1 -0
v 60.8216 0.787402 -37.0115
vt 59.0551 28.7402
vt 58.2677 28.7402
vt 58.2677 0.787402
f 27/32/5 28/33/5 26/34/5 3/35/5 

vt 0.787402 0.787402
vn 1 0 -0
vt 29.5276 0
vt 28.7402 0.787402
f 27/36/6 21/37/6 28/38/6

f 27/36/6 14/5/6 21/37/6

f 14/5/6 27/36/6 15/19/6

v 60.8216 27.5591 -9.05877
f 29/14/6 15/19/6 27/36/6

vt 29.5276 28.3465
f 15/19/6 29/14/6 24/39/6

v 60.8216 27.5591 -37.0115
vt 28.7402 27.5591
f 24/39/6 29/14/6 30/40/6

vt -59.0551 28.7402
vt -59.0551 0.787402
f 30/41/2 29/42/2 2/12/2 11/11/2 

vt -59.0551 27.5591
vn 0 0 -1
f 29/43/7 27/42/7 3/12/7 2/23/7 

vn 0 3.39723e-14 1
vt 59.0551 27.5591
f 28/32/8 30/44/8 11/15/8 26/35/8 

f 28/38/6 21/37/6 30/40/6

f 24/39/6 30/40/6 21/37/6

vt -29.5276 27.5591
vt -29.5276 0
vt -28.7402 27.5591
f 10/45/1 22/46/1 25/31/1 26/30/1 11/47/1 

vt 59.0551 29.5276
f 16/5/5 15/17/5 24/48/5 23/20/5 

v 1.76651 27.5779 -9.03996
vt -0.768596 27.5779
vt -29.5276 28.3465
f 31/49/1 16/19/1 23/50/1

f 16/19/1 31/49/1 12/5/1

v 1.76651 0.768596 -9.03996
vt -0.768596 0.768596
f 32/51/1 12/5/1 31/49/1

f 12/5/1 32/51/1 17/46/1

v 1.76651 0.768596 -37.0303
vt -28.759 0.768596
f 17/46/1 32/51/1 33/52/1

vt 0 28.759
vt 0 0.768596
v 2.55391 0.768596 -9.03996
vt 0.787402 0.768596
v 2.55391 0.768596 -37.0303
vt 0.787402 28.759
f 33/53/5 32/54/5 34/55/5 35/56/5 

vt 0 27.5779
v 2.55391 27.5779 -9.03996
vt -0.787402 27.5779
f 32/54/7 31/57/7 36/58/7 7/2/7 34/7/7 

v 1.76651 27.5779 -37.0303
v 2.55391 27.5779 -37.0303
f 31/54/2 37/53/2 38/8/2 36/7/2 

vt -28.759 27.5779
f 31/49/1 23/50/1 37/59/1

f 37/59/1 23/50/1 17/46/1

f 17/46/1 33/52/1 37/59/1

vt 6.66019e-15 27.5779
vn 2.31587e-16 3.39314e-14 1
vt 6.66019e-15 0.768596
vt 0.787402 27.5779
f 37/60/9 33/61/9 35/55/9 8/14/9 38/62/9 

vt 29.5276 27.5591
vn 1 1.11757e-26 5.9166e-13
vt 28.759 27.5591
vt 28.759 0.768596
vt 28.759 -8.79974e-27
vt 29.5276 -8.79974e-27
f 9/63/10 8/64/10 35/65/10 19/66/10 18/67/10 

vt 0.768596 0.768596
vt 0.768596 0
vt 28.759 0
f 35/65/6 34/68/6 20/69/6 19/70/6 

vt -4.65874e-13 27.5591
vn 1 3.26564e-31 -5.9166e-13
vt -4.65874e-13 -2.57137e-31
vt 0.768596 -2.57137e-31
vt 0.768596 27.5591
f 6/71/11 13/72/11 20/73/11 34/68/11 7/74/11 

vt -28.759 27.5591
vt -0.768596 27.5591
f 38/59/1 8/75/1 7/76/1 36/49/1 

g Mesh2 ___14_1 Model

usemtl Color_M00
f 15/28/2 16/5/2 23/20/2 24/29/2 

v 60.8216 29.5276 -8.27137
v 1.76651 29.5276 -8.27137
f 16/19/3 15/18/3 39/48/3 40/20/3 

v 60.8216 29.5276 -37.7989
vt 29.5276 29.5276
f 15/19/6 24/39/6 41/77/6 39/20/6 

v 1.76651 29.5276 -37.7989
f 24/27/7 23/19/7 42/20/7 41/29/7 

vt -29.5276 29.5276
f 23/50/1 16/19/1 40/20/1 42/78/1 

f 40/5/5 39/17/5 41/48/5 42/20/5 

